<mxfile host="Electron" modified="2024-02-01T15:20:36.606Z" agent="Mozilla/5.0 (Windows NT 10.0; Win64; x64) AppleWebKit/537.36 (KHTML, like Gecko) draw.io/21.1.2 Chrome/106.0.5249.199 Electron/21.4.3 Safari/537.36" etag="eboAMeRwJkW9R5BNnpwu" version="21.1.2" type="device" pages="4">
  <diagram id="SF5K7yCTkEDSx7ahZvWH" name="Class Diagram">
    <mxGraphModel dx="1418" dy="1928" grid="1" gridSize="10" guides="1" tooltips="1" connect="1" arrows="1" fold="1" page="1" pageScale="1" pageWidth="850" pageHeight="1100" math="0" shadow="0">
      <root>
        <mxCell id="0" />
        <mxCell id="1" parent="0" />
        <mxCell id="PUTIXgZuLUncKpYXiAwh-1" value="Link" style="swimlane;fontStyle=0;childLayout=stackLayout;horizontal=1;startSize=26;fillColor=none;horizontalStack=0;resizeParent=1;resizeParentMax=0;resizeLast=0;collapsible=1;marginBottom=0;" parent="1" vertex="1">
          <mxGeometry x="380" y="210" width="140" height="286" as="geometry" />
        </mxCell>
        <mxCell id="PUTIXgZuLUncKpYXiAwh-2" value="+ Id: string" style="text;strokeColor=none;fillColor=none;align=left;verticalAlign=top;spacingLeft=4;spacingRight=4;overflow=hidden;rotatable=0;points=[[0,0.5],[1,0.5]];portConstraint=eastwest;" parent="PUTIXgZuLUncKpYXiAwh-1" vertex="1">
          <mxGeometry y="26" width="140" height="26" as="geometry" />
        </mxCell>
        <mxCell id="PUTIXgZuLUncKpYXiAwh-3" value="+ Url: string" style="text;strokeColor=none;fillColor=none;align=left;verticalAlign=top;spacingLeft=4;spacingRight=4;overflow=hidden;rotatable=0;points=[[0,0.5],[1,0.5]];portConstraint=eastwest;" parent="PUTIXgZuLUncKpYXiAwh-1" vertex="1">
          <mxGeometry y="52" width="140" height="26" as="geometry" />
        </mxCell>
        <mxCell id="PUTIXgZuLUncKpYXiAwh-4" value="+ Category: Category" style="text;strokeColor=none;fillColor=none;align=left;verticalAlign=top;spacingLeft=4;spacingRight=4;overflow=hidden;rotatable=0;points=[[0,0.5],[1,0.5]];portConstraint=eastwest;" parent="PUTIXgZuLUncKpYXiAwh-1" vertex="1">
          <mxGeometry y="78" width="140" height="26" as="geometry" />
        </mxCell>
        <mxCell id="PUTIXgZuLUncKpYXiAwh-6" value="+ Description: string" style="text;strokeColor=none;fillColor=none;align=left;verticalAlign=top;spacingLeft=4;spacingRight=4;overflow=hidden;rotatable=0;points=[[0,0.5],[1,0.5]];portConstraint=eastwest;" parent="PUTIXgZuLUncKpYXiAwh-1" vertex="1">
          <mxGeometry y="104" width="140" height="26" as="geometry" />
        </mxCell>
        <mxCell id="PUTIXgZuLUncKpYXiAwh-8" value="+ Language: Language" style="text;strokeColor=none;fillColor=none;align=left;verticalAlign=top;spacingLeft=4;spacingRight=4;overflow=hidden;rotatable=0;points=[[0,0.5],[1,0.5]];portConstraint=eastwest;" parent="PUTIXgZuLUncKpYXiAwh-1" vertex="1">
          <mxGeometry y="130" width="140" height="26" as="geometry" />
        </mxCell>
        <mxCell id="PUTIXgZuLUncKpYXiAwh-9" value="+ LastVisitAt: DateTime" style="text;strokeColor=none;fillColor=none;align=left;verticalAlign=top;spacingLeft=4;spacingRight=4;overflow=hidden;rotatable=0;points=[[0,0.5],[1,0.5]];portConstraint=eastwest;" parent="PUTIXgZuLUncKpYXiAwh-1" vertex="1">
          <mxGeometry y="156" width="140" height="26" as="geometry" />
        </mxCell>
        <mxCell id="PUTIXgZuLUncKpYXiAwh-10" value="+ CreatedAt: DateTime" style="text;strokeColor=none;fillColor=none;align=left;verticalAlign=top;spacingLeft=4;spacingRight=4;overflow=hidden;rotatable=0;points=[[0,0.5],[1,0.5]];portConstraint=eastwest;" parent="PUTIXgZuLUncKpYXiAwh-1" vertex="1">
          <mxGeometry y="182" width="140" height="26" as="geometry" />
        </mxCell>
        <mxCell id="PUTIXgZuLUncKpYXiAwh-11" value="+ ModifiedAt: DateTime" style="text;strokeColor=none;fillColor=none;align=left;verticalAlign=top;spacingLeft=4;spacingRight=4;overflow=hidden;rotatable=0;points=[[0,0.5],[1,0.5]];portConstraint=eastwest;" parent="PUTIXgZuLUncKpYXiAwh-1" vertex="1">
          <mxGeometry y="208" width="140" height="26" as="geometry" />
        </mxCell>
        <mxCell id="KC_bhgN3N-FSgMPbrbiI-1" value="+ CreatedBy: string" style="text;strokeColor=none;fillColor=none;align=left;verticalAlign=top;spacingLeft=4;spacingRight=4;overflow=hidden;rotatable=0;points=[[0,0.5],[1,0.5]];portConstraint=eastwest;" parent="PUTIXgZuLUncKpYXiAwh-1" vertex="1">
          <mxGeometry y="234" width="140" height="26" as="geometry" />
        </mxCell>
        <mxCell id="edwpPrw5wFrQ9kOIN-ai-1" value="+ Rating: Rating" style="text;strokeColor=none;fillColor=none;align=left;verticalAlign=top;spacingLeft=4;spacingRight=4;overflow=hidden;rotatable=0;points=[[0,0.5],[1,0.5]];portConstraint=eastwest;" parent="PUTIXgZuLUncKpYXiAwh-1" vertex="1">
          <mxGeometry y="260" width="140" height="26" as="geometry" />
        </mxCell>
        <mxCell id="S6VWx_is9Lv8WilPgJaC-2" style="edgeStyle=orthogonalEdgeStyle;rounded=0;orthogonalLoop=1;jettySize=auto;html=1;exitX=0;exitY=0.25;exitDx=0;exitDy=0;entryX=1;entryY=0.5;entryDx=0;entryDy=0;" parent="1" source="PUTIXgZuLUncKpYXiAwh-5" target="PUTIXgZuLUncKpYXiAwh-4" edge="1">
          <mxGeometry relative="1" as="geometry" />
        </mxCell>
        <mxCell id="PUTIXgZuLUncKpYXiAwh-5" value="&lt;p style=&quot;margin:0px;margin-top:4px;text-align:center;text-decoration:underline;&quot;&gt;&lt;b&gt;Category&lt;/b&gt;&lt;/p&gt;&lt;hr&gt;&lt;p style=&quot;margin:0px;margin-left:8px;&quot;&gt;Health&lt;/p&gt;&lt;p style=&quot;margin:0px;margin-left:8px;&quot;&gt;Education&lt;/p&gt;&lt;p style=&quot;margin:0px;margin-left:8px;&quot;&gt;Entertainment&lt;/p&gt;&lt;p style=&quot;margin:0px;margin-left:8px;&quot;&gt;Finance&lt;/p&gt;&lt;p style=&quot;margin:0px;margin-left:8px;&quot;&gt;News&lt;/p&gt;&lt;p style=&quot;margin:0px;margin-left:8px;&quot;&gt;Programming&lt;/p&gt;&lt;p style=&quot;margin:0px;margin-left:8px;&quot;&gt;Science&lt;/p&gt;&lt;p style=&quot;margin:0px;margin-left:8px;&quot;&gt;Technology&lt;/p&gt;&lt;p style=&quot;margin:0px;margin-left:8px;&quot;&gt;Utility&lt;/p&gt;&lt;p style=&quot;margin:0px;margin-left:8px;&quot;&gt;Animals&lt;/p&gt;&lt;p style=&quot;margin:0px;margin-left:8px;&quot;&gt;CloudStorage&lt;/p&gt;&lt;p style=&quot;margin:0px;margin-left:8px;&quot;&gt;Forum&lt;/p&gt;&lt;p style=&quot;margin:0px;margin-left:8px;&quot;&gt;Language&lt;/p&gt;" style="verticalAlign=top;align=left;overflow=fill;fontSize=12;fontFamily=Helvetica;html=1;" parent="1" vertex="1">
          <mxGeometry x="800" y="360" width="160" height="230" as="geometry" />
        </mxCell>
        <mxCell id="PUTIXgZuLUncKpYXiAwh-38" style="edgeStyle=orthogonalEdgeStyle;rounded=0;orthogonalLoop=1;jettySize=auto;html=1;entryX=0;entryY=0.5;entryDx=0;entryDy=0;endArrow=ERmandOne;endFill=0;startArrow=ERmandOne;startFill=0;" parent="1" source="PUTIXgZuLUncKpYXiAwh-12" target="PUTIXgZuLUncKpYXiAwh-10" edge="1">
          <mxGeometry relative="1" as="geometry" />
        </mxCell>
        <mxCell id="PUTIXgZuLUncKpYXiAwh-12" value="Website" style="swimlane;fontStyle=0;childLayout=stackLayout;horizontal=1;startSize=26;fillColor=none;horizontalStack=0;resizeParent=1;resizeParentMax=0;resizeLast=0;collapsible=1;marginBottom=0;" parent="1" vertex="1">
          <mxGeometry x="180" y="540" width="140" height="182" as="geometry" />
        </mxCell>
        <mxCell id="PUTIXgZuLUncKpYXiAwh-13" value="+ Name: string" style="text;strokeColor=none;fillColor=none;align=left;verticalAlign=top;spacingLeft=4;spacingRight=4;overflow=hidden;rotatable=0;points=[[0,0.5],[1,0.5]];portConstraint=eastwest;" parent="PUTIXgZuLUncKpYXiAwh-12" vertex="1">
          <mxGeometry y="26" width="140" height="26" as="geometry" />
        </mxCell>
        <mxCell id="PUTIXgZuLUncKpYXiAwh-14" value="+ Domain: string" style="text;strokeColor=none;fillColor=none;align=left;verticalAlign=top;spacingLeft=4;spacingRight=4;overflow=hidden;rotatable=0;points=[[0,0.5],[1,0.5]];portConstraint=eastwest;" parent="PUTIXgZuLUncKpYXiAwh-12" vertex="1">
          <mxGeometry y="52" width="140" height="26" as="geometry" />
        </mxCell>
        <mxCell id="PUTIXgZuLUncKpYXiAwh-15" value="+ Aesthetics: Aesthetics" style="text;strokeColor=none;fillColor=none;align=left;verticalAlign=top;spacingLeft=4;spacingRight=4;overflow=hidden;rotatable=0;points=[[0,0.5],[1,0.5]];portConstraint=eastwest;" parent="PUTIXgZuLUncKpYXiAwh-12" vertex="1">
          <mxGeometry y="78" width="140" height="26" as="geometry" />
        </mxCell>
        <mxCell id="PUTIXgZuLUncKpYXiAwh-16" value="+ IsSubdomain: bool" style="text;strokeColor=none;fillColor=none;align=left;verticalAlign=top;spacingLeft=4;spacingRight=4;overflow=hidden;rotatable=0;points=[[0,0.5],[1,0.5]];portConstraint=eastwest;" parent="PUTIXgZuLUncKpYXiAwh-12" vertex="1">
          <mxGeometry y="104" width="140" height="26" as="geometry" />
        </mxCell>
        <mxCell id="PUTIXgZuLUncKpYXiAwh-17" value="+ IsMultilungual: bool" style="text;strokeColor=none;fillColor=none;align=left;verticalAlign=top;spacingLeft=4;spacingRight=4;overflow=hidden;rotatable=0;points=[[0,0.5],[1,0.5]];portConstraint=eastwest;" parent="PUTIXgZuLUncKpYXiAwh-12" vertex="1">
          <mxGeometry y="130" width="140" height="26" as="geometry" />
        </mxCell>
        <mxCell id="VP80D4B_9JmxXgdvfGFs-5" value="+ LinkId: string" style="text;strokeColor=none;fillColor=none;align=left;verticalAlign=top;spacingLeft=4;spacingRight=4;overflow=hidden;rotatable=0;points=[[0,0.5],[1,0.5]];portConstraint=eastwest;" parent="PUTIXgZuLUncKpYXiAwh-12" vertex="1">
          <mxGeometry y="156" width="140" height="26" as="geometry" />
        </mxCell>
        <mxCell id="PUTIXgZuLUncKpYXiAwh-22" value="&lt;h1&gt;Linker&lt;/h1&gt;&lt;p&gt;A program that helps to aggregate, organize useful links and urls that have the value perceived by the user.&lt;/p&gt;&lt;p&gt;The link may comes in form of general website, tools, articles and youtube channel.&lt;/p&gt;" style="text;html=1;strokeColor=none;fillColor=none;spacing=5;spacingTop=-20;whiteSpace=wrap;overflow=hidden;rounded=0;" parent="1" vertex="1">
          <mxGeometry x="30" y="30" width="190" height="200" as="geometry" />
        </mxCell>
        <mxCell id="S6VWx_is9Lv8WilPgJaC-1" style="edgeStyle=orthogonalEdgeStyle;rounded=0;orthogonalLoop=1;jettySize=auto;html=1;entryX=0;entryY=0.5;entryDx=0;entryDy=0;" parent="1" source="PUTIXgZuLUncKpYXiAwh-24" target="PUTIXgZuLUncKpYXiAwh-15" edge="1">
          <mxGeometry relative="1" as="geometry" />
        </mxCell>
        <mxCell id="PUTIXgZuLUncKpYXiAwh-24" value="&lt;p style=&quot;margin:0px;margin-top:4px;text-align:center;text-decoration:underline;&quot;&gt;&lt;b&gt;Aesthetics&lt;/b&gt;&lt;/p&gt;&lt;hr&gt;&lt;p style=&quot;margin:0px;margin-left:8px;&quot;&gt;Undetermined&lt;/p&gt;&lt;p style=&quot;margin:0px;margin-left:8px;&quot;&gt;Poor&lt;/p&gt;&lt;p style=&quot;margin:0px;margin-left:8px;&quot;&gt;Normal&lt;/p&gt;&lt;p style=&quot;margin:0px;margin-left:8px;&quot;&gt;Clean&lt;/p&gt;&lt;p style=&quot;margin:0px;margin-left:8px;&quot;&gt;Decent&lt;/p&gt;&lt;p style=&quot;margin:0px;margin-left:8px;&quot;&gt;Impressive&lt;/p&gt;" style="verticalAlign=top;align=left;overflow=fill;fontSize=12;fontFamily=Helvetica;html=1;" parent="1" vertex="1">
          <mxGeometry x="60" y="760" width="160" height="130" as="geometry" />
        </mxCell>
        <mxCell id="PUTIXgZuLUncKpYXiAwh-40" style="edgeStyle=orthogonalEdgeStyle;rounded=0;orthogonalLoop=1;jettySize=auto;html=1;endArrow=ERmandOne;endFill=0;startArrow=ERmandOne;startFill=0;" parent="1" source="PUTIXgZuLUncKpYXiAwh-25" edge="1">
          <mxGeometry relative="1" as="geometry">
            <mxPoint x="450" y="500" as="targetPoint" />
          </mxGeometry>
        </mxCell>
        <mxCell id="PUTIXgZuLUncKpYXiAwh-25" value="Article" style="swimlane;fontStyle=0;childLayout=stackLayout;horizontal=1;startSize=26;fillColor=none;horizontalStack=0;resizeParent=1;resizeParentMax=0;resizeLast=0;collapsible=1;marginBottom=0;" parent="1" vertex="1">
          <mxGeometry x="380" y="540" width="140" height="182" as="geometry" />
        </mxCell>
        <mxCell id="PUTIXgZuLUncKpYXiAwh-26" value="+ Title: string" style="text;strokeColor=none;fillColor=none;align=left;verticalAlign=top;spacingLeft=4;spacingRight=4;overflow=hidden;rotatable=0;points=[[0,0.5],[1,0.5]];portConstraint=eastwest;" parent="PUTIXgZuLUncKpYXiAwh-25" vertex="1">
          <mxGeometry y="26" width="140" height="26" as="geometry" />
        </mxCell>
        <mxCell id="PUTIXgZuLUncKpYXiAwh-27" value="+ Author: string" style="text;strokeColor=none;fillColor=none;align=left;verticalAlign=top;spacingLeft=4;spacingRight=4;overflow=hidden;rotatable=0;points=[[0,0.5],[1,0.5]];portConstraint=eastwest;" parent="PUTIXgZuLUncKpYXiAwh-25" vertex="1">
          <mxGeometry y="52" width="140" height="26" as="geometry" />
        </mxCell>
        <mxCell id="PUTIXgZuLUncKpYXiAwh-28" value="+ Year: int" style="text;strokeColor=none;fillColor=none;align=left;verticalAlign=top;spacingLeft=4;spacingRight=4;overflow=hidden;rotatable=0;points=[[0,0.5],[1,0.5]];portConstraint=eastwest;" parent="PUTIXgZuLUncKpYXiAwh-25" vertex="1">
          <mxGeometry y="78" width="140" height="26" as="geometry" />
        </mxCell>
        <mxCell id="PUTIXgZuLUncKpYXiAwh-29" value="+ Domain: string" style="text;strokeColor=none;fillColor=none;align=left;verticalAlign=top;spacingLeft=4;spacingRight=4;overflow=hidden;rotatable=0;points=[[0,0.5],[1,0.5]];portConstraint=eastwest;" parent="PUTIXgZuLUncKpYXiAwh-25" vertex="1">
          <mxGeometry y="104" width="140" height="26" as="geometry" />
        </mxCell>
        <mxCell id="PUTIXgZuLUncKpYXiAwh-30" value="+ Grammar: Grammar" style="text;strokeColor=none;fillColor=none;align=left;verticalAlign=top;spacingLeft=4;spacingRight=4;overflow=hidden;rotatable=0;points=[[0,0.5],[1,0.5]];portConstraint=eastwest;" parent="PUTIXgZuLUncKpYXiAwh-25" vertex="1">
          <mxGeometry y="130" width="140" height="26" as="geometry" />
        </mxCell>
        <mxCell id="VP80D4B_9JmxXgdvfGFs-6" value="+ LinkId: string" style="text;strokeColor=none;fillColor=none;align=left;verticalAlign=top;spacingLeft=4;spacingRight=4;overflow=hidden;rotatable=0;points=[[0,0.5],[1,0.5]];portConstraint=eastwest;" parent="PUTIXgZuLUncKpYXiAwh-25" vertex="1">
          <mxGeometry y="156" width="140" height="26" as="geometry" />
        </mxCell>
        <mxCell id="S6VWx_is9Lv8WilPgJaC-3" style="edgeStyle=orthogonalEdgeStyle;rounded=0;orthogonalLoop=1;jettySize=auto;html=1;" parent="1" source="PUTIXgZuLUncKpYXiAwh-31" target="PUTIXgZuLUncKpYXiAwh-30" edge="1">
          <mxGeometry relative="1" as="geometry" />
        </mxCell>
        <mxCell id="PUTIXgZuLUncKpYXiAwh-31" value="&lt;p style=&quot;margin:0px;margin-top:4px;text-align:center;text-decoration:underline;&quot;&gt;&lt;b&gt;Grammar&lt;/b&gt;&lt;/p&gt;&lt;hr&gt;&lt;p style=&quot;margin:0px;margin-left:8px;&quot;&gt;Unknown&lt;/p&gt;&lt;p style=&quot;margin:0px;margin-left:8px;&quot;&gt;Poor&lt;/p&gt;&lt;p style=&quot;margin:0px;margin-left:8px;&quot;&gt;Average&lt;/p&gt;&lt;p style=&quot;margin:0px;margin-left:8px;&quot;&gt;Good&lt;/p&gt;&lt;p style=&quot;margin:0px;margin-left:8px;&quot;&gt;Impressive&lt;/p&gt;" style="verticalAlign=top;align=left;overflow=fill;fontSize=12;fontFamily=Helvetica;html=1;" parent="1" vertex="1">
          <mxGeometry x="370" y="820" width="160" height="110" as="geometry" />
        </mxCell>
        <mxCell id="PUTIXgZuLUncKpYXiAwh-39" style="edgeStyle=orthogonalEdgeStyle;rounded=0;orthogonalLoop=1;jettySize=auto;html=1;endArrow=ERmandOne;endFill=0;startArrow=ERmandOne;startFill=0;" parent="1" source="PUTIXgZuLUncKpYXiAwh-32" edge="1">
          <mxGeometry relative="1" as="geometry">
            <mxPoint x="521" y="431" as="targetPoint" />
            <Array as="points">
              <mxPoint x="650" y="431" />
              <mxPoint x="521" y="431" />
            </Array>
          </mxGeometry>
        </mxCell>
        <mxCell id="PUTIXgZuLUncKpYXiAwh-32" value="Youtube" style="swimlane;fontStyle=0;childLayout=stackLayout;horizontal=1;startSize=26;fillColor=none;horizontalStack=0;resizeParent=1;resizeParentMax=0;resizeLast=0;collapsible=1;marginBottom=0;" parent="1" vertex="1">
          <mxGeometry x="580" y="540" width="140" height="130" as="geometry" />
        </mxCell>
        <mxCell id="PUTIXgZuLUncKpYXiAwh-33" value="+ Name: string" style="text;strokeColor=none;fillColor=none;align=left;verticalAlign=top;spacingLeft=4;spacingRight=4;overflow=hidden;rotatable=0;points=[[0,0.5],[1,0.5]];portConstraint=eastwest;" parent="PUTIXgZuLUncKpYXiAwh-32" vertex="1">
          <mxGeometry y="26" width="140" height="26" as="geometry" />
        </mxCell>
        <mxCell id="PUTIXgZuLUncKpYXiAwh-34" value="+ Youtuber: string" style="text;strokeColor=none;fillColor=none;align=left;verticalAlign=top;spacingLeft=4;spacingRight=4;overflow=hidden;rotatable=0;points=[[0,0.5],[1,0.5]];portConstraint=eastwest;" parent="PUTIXgZuLUncKpYXiAwh-32" vertex="1">
          <mxGeometry y="52" width="140" height="26" as="geometry" />
        </mxCell>
        <mxCell id="PUTIXgZuLUncKpYXiAwh-35" value="+ Country: string" style="text;strokeColor=none;fillColor=none;align=left;verticalAlign=top;spacingLeft=4;spacingRight=4;overflow=hidden;rotatable=0;points=[[0,0.5],[1,0.5]];portConstraint=eastwest;" parent="PUTIXgZuLUncKpYXiAwh-32" vertex="1">
          <mxGeometry y="78" width="140" height="26" as="geometry" />
        </mxCell>
        <mxCell id="VP80D4B_9JmxXgdvfGFs-7" value="+ LinkId: string" style="text;strokeColor=none;fillColor=none;align=left;verticalAlign=top;spacingLeft=4;spacingRight=4;overflow=hidden;rotatable=0;points=[[0,0.5],[1,0.5]];portConstraint=eastwest;" parent="PUTIXgZuLUncKpYXiAwh-32" vertex="1">
          <mxGeometry y="104" width="140" height="26" as="geometry" />
        </mxCell>
        <mxCell id="VP80D4B_9JmxXgdvfGFs-1" value="User" style="swimlane;fontStyle=1;align=center;verticalAlign=top;childLayout=stackLayout;horizontal=1;startSize=26;horizontalStack=0;resizeParent=1;resizeParentMax=0;resizeLast=0;collapsible=1;marginBottom=0;" parent="1" vertex="1">
          <mxGeometry x="550" y="-70" width="160" height="234" as="geometry" />
        </mxCell>
        <mxCell id="VP80D4B_9JmxXgdvfGFs-2" value="+ Id: string" style="text;strokeColor=none;fillColor=none;align=left;verticalAlign=top;spacingLeft=4;spacingRight=4;overflow=hidden;rotatable=0;points=[[0,0.5],[1,0.5]];portConstraint=eastwest;" parent="VP80D4B_9JmxXgdvfGFs-1" vertex="1">
          <mxGeometry y="26" width="160" height="26" as="geometry" />
        </mxCell>
        <mxCell id="VP80D4B_9JmxXgdvfGFs-4" value="+ Username: string" style="text;strokeColor=none;fillColor=none;align=left;verticalAlign=top;spacingLeft=4;spacingRight=4;overflow=hidden;rotatable=0;points=[[0,0.5],[1,0.5]];portConstraint=eastwest;" parent="VP80D4B_9JmxXgdvfGFs-1" vertex="1">
          <mxGeometry y="52" width="160" height="26" as="geometry" />
        </mxCell>
        <mxCell id="E_Nj4bWa9FeO8sWHGyJy-16" style="edgeStyle=orthogonalEdgeStyle;rounded=0;orthogonalLoop=1;jettySize=auto;html=1;endArrow=ERmany;endFill=0;startArrow=ERmandOne;startFill=0;" parent="VP80D4B_9JmxXgdvfGFs-1" source="LglKgQJjtFQK7UAZ-Oge-1" edge="1">
          <mxGeometry relative="1" as="geometry">
            <mxPoint x="340" y="91" as="targetPoint" />
          </mxGeometry>
        </mxCell>
        <mxCell id="LglKgQJjtFQK7UAZ-Oge-1" value="+ Password: string" style="text;strokeColor=none;fillColor=none;align=left;verticalAlign=top;spacingLeft=4;spacingRight=4;overflow=hidden;rotatable=0;points=[[0,0.5],[1,0.5]];portConstraint=eastwest;" parent="VP80D4B_9JmxXgdvfGFs-1" vertex="1">
          <mxGeometry y="78" width="160" height="26" as="geometry" />
        </mxCell>
        <mxCell id="e-p2vEiRy57g-orFrgJ2-1" value="+ Role: Role" style="text;strokeColor=none;fillColor=none;align=left;verticalAlign=top;spacingLeft=4;spacingRight=4;overflow=hidden;rotatable=0;points=[[0,0.5],[1,0.5]];portConstraint=eastwest;" parent="VP80D4B_9JmxXgdvfGFs-1" vertex="1">
          <mxGeometry y="104" width="160" height="26" as="geometry" />
        </mxCell>
        <mxCell id="e-p2vEiRy57g-orFrgJ2-2" value="+ Status: Status" style="text;strokeColor=none;fillColor=none;align=left;verticalAlign=top;spacingLeft=4;spacingRight=4;overflow=hidden;rotatable=0;points=[[0,0.5],[1,0.5]];portConstraint=eastwest;" parent="VP80D4B_9JmxXgdvfGFs-1" vertex="1">
          <mxGeometry y="130" width="160" height="26" as="geometry" />
        </mxCell>
        <mxCell id="edwpPrw5wFrQ9kOIN-ai-2" value="+ DateOfBirth: DateTime" style="text;strokeColor=none;fillColor=none;align=left;verticalAlign=top;spacingLeft=4;spacingRight=4;overflow=hidden;rotatable=0;points=[[0,0.5],[1,0.5]];portConstraint=eastwest;" parent="VP80D4B_9JmxXgdvfGFs-1" vertex="1">
          <mxGeometry y="156" width="160" height="26" as="geometry" />
        </mxCell>
        <mxCell id="LglKgQJjtFQK7UAZ-Oge-2" value="+ CreatedAt: DateTime" style="text;strokeColor=none;fillColor=none;align=left;verticalAlign=top;spacingLeft=4;spacingRight=4;overflow=hidden;rotatable=0;points=[[0,0.5],[1,0.5]];portConstraint=eastwest;" parent="VP80D4B_9JmxXgdvfGFs-1" vertex="1">
          <mxGeometry y="182" width="160" height="26" as="geometry" />
        </mxCell>
        <mxCell id="LglKgQJjtFQK7UAZ-Oge-3" value="+ UpdatedAt: DateTime" style="text;strokeColor=none;fillColor=none;align=left;verticalAlign=top;spacingLeft=4;spacingRight=4;overflow=hidden;rotatable=0;points=[[0,0.5],[1,0.5]];portConstraint=eastwest;" parent="VP80D4B_9JmxXgdvfGFs-1" vertex="1">
          <mxGeometry y="208" width="160" height="26" as="geometry" />
        </mxCell>
        <mxCell id="VP80D4B_9JmxXgdvfGFs-8" value="Tags" style="swimlane;fontStyle=1;align=center;verticalAlign=top;childLayout=stackLayout;horizontal=1;startSize=26;horizontalStack=0;resizeParent=1;resizeParentMax=0;resizeLast=0;collapsible=1;marginBottom=0;" parent="1" vertex="1">
          <mxGeometry x="820" y="160" width="160" height="130" as="geometry" />
        </mxCell>
        <mxCell id="VP80D4B_9JmxXgdvfGFs-9" value="+ Id: string" style="text;strokeColor=none;fillColor=none;align=left;verticalAlign=top;spacingLeft=4;spacingRight=4;overflow=hidden;rotatable=0;points=[[0,0.5],[1,0.5]];portConstraint=eastwest;" parent="VP80D4B_9JmxXgdvfGFs-8" vertex="1">
          <mxGeometry y="26" width="160" height="26" as="geometry" />
        </mxCell>
        <mxCell id="VP80D4B_9JmxXgdvfGFs-11" value="+ Name: string" style="text;strokeColor=none;fillColor=none;align=left;verticalAlign=top;spacingLeft=4;spacingRight=4;overflow=hidden;rotatable=0;points=[[0,0.5],[1,0.5]];portConstraint=eastwest;" parent="VP80D4B_9JmxXgdvfGFs-8" vertex="1">
          <mxGeometry y="52" width="160" height="26" as="geometry" />
        </mxCell>
        <mxCell id="VP80D4B_9JmxXgdvfGFs-12" value="+ CreatedAt: DateTime" style="text;strokeColor=none;fillColor=none;align=left;verticalAlign=top;spacingLeft=4;spacingRight=4;overflow=hidden;rotatable=0;points=[[0,0.5],[1,0.5]];portConstraint=eastwest;" parent="VP80D4B_9JmxXgdvfGFs-8" vertex="1">
          <mxGeometry y="78" width="160" height="26" as="geometry" />
        </mxCell>
        <mxCell id="VP80D4B_9JmxXgdvfGFs-13" value="+ UpdatedAt: DateTime" style="text;strokeColor=none;fillColor=none;align=left;verticalAlign=top;spacingLeft=4;spacingRight=4;overflow=hidden;rotatable=0;points=[[0,0.5],[1,0.5]];portConstraint=eastwest;" parent="VP80D4B_9JmxXgdvfGFs-8" vertex="1">
          <mxGeometry y="104" width="160" height="26" as="geometry" />
        </mxCell>
        <mxCell id="VP80D4B_9JmxXgdvfGFs-14" style="edgeStyle=orthogonalEdgeStyle;rounded=0;orthogonalLoop=1;jettySize=auto;html=1;startArrow=ERmany;startFill=0;endArrow=ERmany;endFill=0;" parent="1" source="VP80D4B_9JmxXgdvfGFs-11" target="PUTIXgZuLUncKpYXiAwh-3" edge="1">
          <mxGeometry relative="1" as="geometry" />
        </mxCell>
        <mxCell id="e-p2vEiRy57g-orFrgJ2-11" style="edgeStyle=orthogonalEdgeStyle;rounded=0;orthogonalLoop=1;jettySize=auto;html=1;entryX=0.5;entryY=0;entryDx=0;entryDy=0;endArrow=ERmany;endFill=0;startArrow=ERone;startFill=0;" parent="1" source="e-p2vEiRy57g-orFrgJ2-1" target="PUTIXgZuLUncKpYXiAwh-1" edge="1">
          <mxGeometry relative="1" as="geometry" />
        </mxCell>
        <mxCell id="8kRchkBAhO41Ou8-imYO-3" style="edgeStyle=orthogonalEdgeStyle;rounded=0;orthogonalLoop=1;jettySize=auto;html=1;" parent="1" source="8kRchkBAhO41Ou8-imYO-2" target="e-p2vEiRy57g-orFrgJ2-2" edge="1">
          <mxGeometry relative="1" as="geometry" />
        </mxCell>
        <mxCell id="8kRchkBAhO41Ou8-imYO-2" value="&lt;p style=&quot;margin:0px;margin-top:4px;text-align:center;text-decoration:underline;&quot;&gt;&lt;b&gt;Status&lt;/b&gt;&lt;/p&gt;&lt;hr&gt;&lt;p style=&quot;margin:0px;margin-left:8px;&quot;&gt;Created&lt;/p&gt;&lt;p style=&quot;margin:0px;margin-left:8px;&quot;&gt;Active&lt;/p&gt;&lt;p style=&quot;margin:0px;margin-left:8px;&quot;&gt;Suspended&lt;/p&gt;&lt;p style=&quot;margin:0px;margin-left:8px;&quot;&gt;Banned&lt;/p&gt;&lt;p style=&quot;margin:0px;margin-left:8px;&quot;&gt;Deactivated&lt;/p&gt;" style="verticalAlign=top;align=left;overflow=fill;fontSize=12;fontFamily=Helvetica;html=1;" parent="1" vertex="1">
          <mxGeometry x="720" y="-230" width="160" height="110" as="geometry" />
        </mxCell>
        <mxCell id="rTQ4sVeXUSqFoBNnxoST-1" value="Credentials" style="swimlane;fontStyle=1;align=center;verticalAlign=top;childLayout=stackLayout;horizontal=1;startSize=26;horizontalStack=0;resizeParent=1;resizeParentMax=0;resizeLast=0;collapsible=1;marginBottom=0;" parent="1" vertex="1">
          <mxGeometry x="1080" y="-360" width="160" height="104" as="geometry" />
        </mxCell>
        <mxCell id="rTQ4sVeXUSqFoBNnxoST-2" value="+ PasswordHash: string" style="text;strokeColor=none;fillColor=none;align=left;verticalAlign=top;spacingLeft=4;spacingRight=4;overflow=hidden;rotatable=0;points=[[0,0.5],[1,0.5]];portConstraint=eastwest;" parent="rTQ4sVeXUSqFoBNnxoST-1" vertex="1">
          <mxGeometry y="26" width="160" height="26" as="geometry" />
        </mxCell>
        <mxCell id="rTQ4sVeXUSqFoBNnxoST-3" value="+ PasswordSalt: string" style="text;strokeColor=none;fillColor=none;align=left;verticalAlign=top;spacingLeft=4;spacingRight=4;overflow=hidden;rotatable=0;points=[[0,0.5],[1,0.5]];portConstraint=eastwest;" parent="rTQ4sVeXUSqFoBNnxoST-1" vertex="1">
          <mxGeometry y="52" width="160" height="26" as="geometry" />
        </mxCell>
        <mxCell id="rTQ4sVeXUSqFoBNnxoST-5" value="+ HashingAlgorithm: string" style="text;strokeColor=none;fillColor=none;align=left;verticalAlign=top;spacingLeft=4;spacingRight=4;overflow=hidden;rotatable=0;points=[[0,0.5],[1,0.5]];portConstraint=eastwest;" parent="rTQ4sVeXUSqFoBNnxoST-1" vertex="1">
          <mxGeometry y="78" width="160" height="26" as="geometry" />
        </mxCell>
        <mxCell id="E_Nj4bWa9FeO8sWHGyJy-1" value="Workspace" style="swimlane;fontStyle=1;align=center;verticalAlign=top;childLayout=stackLayout;horizontal=1;startSize=26;horizontalStack=0;resizeParent=1;resizeParentMax=0;resizeLast=0;collapsible=1;marginBottom=0;" parent="1" vertex="1">
          <mxGeometry x="1195" y="-60" width="160" height="208" as="geometry" />
        </mxCell>
        <mxCell id="E_Nj4bWa9FeO8sWHGyJy-2" value="+ Id: string" style="text;strokeColor=none;fillColor=none;align=left;verticalAlign=top;spacingLeft=4;spacingRight=4;overflow=hidden;rotatable=0;points=[[0,0.5],[1,0.5]];portConstraint=eastwest;" parent="E_Nj4bWa9FeO8sWHGyJy-1" vertex="1">
          <mxGeometry y="26" width="160" height="26" as="geometry" />
        </mxCell>
        <mxCell id="E_Nj4bWa9FeO8sWHGyJy-3" value="+ handle: string" style="text;strokeColor=none;fillColor=none;align=left;verticalAlign=top;spacingLeft=4;spacingRight=4;overflow=hidden;rotatable=0;points=[[0,0.5],[1,0.5]];portConstraint=eastwest;" parent="E_Nj4bWa9FeO8sWHGyJy-1" vertex="1">
          <mxGeometry y="52" width="160" height="26" as="geometry" />
        </mxCell>
        <mxCell id="E_Nj4bWa9FeO8sWHGyJy-4" value="+ Name: string" style="text;strokeColor=none;fillColor=none;align=left;verticalAlign=top;spacingLeft=4;spacingRight=4;overflow=hidden;rotatable=0;points=[[0,0.5],[1,0.5]];portConstraint=eastwest;" parent="E_Nj4bWa9FeO8sWHGyJy-1" vertex="1">
          <mxGeometry y="78" width="160" height="26" as="geometry" />
        </mxCell>
        <mxCell id="E_Nj4bWa9FeO8sWHGyJy-5" value="+ OwnerId: string" style="text;strokeColor=none;fillColor=none;align=left;verticalAlign=top;spacingLeft=4;spacingRight=4;overflow=hidden;rotatable=0;points=[[0,0.5],[1,0.5]];portConstraint=eastwest;" parent="E_Nj4bWa9FeO8sWHGyJy-1" vertex="1">
          <mxGeometry y="104" width="160" height="26" as="geometry" />
        </mxCell>
        <mxCell id="E_Nj4bWa9FeO8sWHGyJy-6" value="+ Description: string" style="text;strokeColor=none;fillColor=none;align=left;verticalAlign=top;spacingLeft=4;spacingRight=4;overflow=hidden;rotatable=0;points=[[0,0.5],[1,0.5]];portConstraint=eastwest;" parent="E_Nj4bWa9FeO8sWHGyJy-1" vertex="1">
          <mxGeometry y="130" width="160" height="26" as="geometry" />
        </mxCell>
        <mxCell id="E_Nj4bWa9FeO8sWHGyJy-8" value="+ CreatedAt: DateTime" style="text;strokeColor=none;fillColor=none;align=left;verticalAlign=top;spacingLeft=4;spacingRight=4;overflow=hidden;rotatable=0;points=[[0,0.5],[1,0.5]];portConstraint=eastwest;" parent="E_Nj4bWa9FeO8sWHGyJy-1" vertex="1">
          <mxGeometry y="156" width="160" height="26" as="geometry" />
        </mxCell>
        <mxCell id="E_Nj4bWa9FeO8sWHGyJy-9" value="+ UpdatedAt: DateTime" style="text;strokeColor=none;fillColor=none;align=left;verticalAlign=top;spacingLeft=4;spacingRight=4;overflow=hidden;rotatable=0;points=[[0,0.5],[1,0.5]];portConstraint=eastwest;" parent="E_Nj4bWa9FeO8sWHGyJy-1" vertex="1">
          <mxGeometry y="182" width="160" height="26" as="geometry" />
        </mxCell>
        <mxCell id="E_Nj4bWa9FeO8sWHGyJy-10" value="Workspace Membership" style="swimlane;fontStyle=1;align=center;verticalAlign=top;childLayout=stackLayout;horizontal=1;startSize=26;horizontalStack=0;resizeParent=1;resizeParentMax=0;resizeLast=0;collapsible=1;marginBottom=0;" parent="1" vertex="1">
          <mxGeometry x="900" y="-50" width="160" height="156" as="geometry" />
        </mxCell>
        <mxCell id="E_Nj4bWa9FeO8sWHGyJy-11" value="+ WorkspaceId: string" style="text;strokeColor=none;fillColor=none;align=left;verticalAlign=top;spacingLeft=4;spacingRight=4;overflow=hidden;rotatable=0;points=[[0,0.5],[1,0.5]];portConstraint=eastwest;" parent="E_Nj4bWa9FeO8sWHGyJy-10" vertex="1">
          <mxGeometry y="26" width="160" height="26" as="geometry" />
        </mxCell>
        <mxCell id="E_Nj4bWa9FeO8sWHGyJy-12" value="+ UserId: string" style="text;strokeColor=none;fillColor=none;align=left;verticalAlign=top;spacingLeft=4;spacingRight=4;overflow=hidden;rotatable=0;points=[[0,0.5],[1,0.5]];portConstraint=eastwest;" parent="E_Nj4bWa9FeO8sWHGyJy-10" vertex="1">
          <mxGeometry y="52" width="160" height="26" as="geometry" />
        </mxCell>
        <mxCell id="E_Nj4bWa9FeO8sWHGyJy-18" style="edgeStyle=orthogonalEdgeStyle;rounded=0;orthogonalLoop=1;jettySize=auto;html=1;endArrow=ERmandOne;endFill=0;startArrow=ERoneToMany;startFill=0;" parent="E_Nj4bWa9FeO8sWHGyJy-10" source="E_Nj4bWa9FeO8sWHGyJy-13" edge="1">
          <mxGeometry relative="1" as="geometry">
            <mxPoint x="290" y="91" as="targetPoint" />
          </mxGeometry>
        </mxCell>
        <mxCell id="E_Nj4bWa9FeO8sWHGyJy-13" value="+ WorkspaceRole: WR" style="text;strokeColor=none;fillColor=none;align=left;verticalAlign=top;spacingLeft=4;spacingRight=4;overflow=hidden;rotatable=0;points=[[0,0.5],[1,0.5]];portConstraint=eastwest;" parent="E_Nj4bWa9FeO8sWHGyJy-10" vertex="1">
          <mxGeometry y="78" width="160" height="26" as="geometry" />
        </mxCell>
        <mxCell id="E_Nj4bWa9FeO8sWHGyJy-14" value="+ CreatedAt: DateTime" style="text;strokeColor=none;fillColor=none;align=left;verticalAlign=top;spacingLeft=4;spacingRight=4;overflow=hidden;rotatable=0;points=[[0,0.5],[1,0.5]];portConstraint=eastwest;" parent="E_Nj4bWa9FeO8sWHGyJy-10" vertex="1">
          <mxGeometry y="104" width="160" height="26" as="geometry" />
        </mxCell>
        <mxCell id="E_Nj4bWa9FeO8sWHGyJy-15" value="+ UpdatedAt: DateTime" style="text;strokeColor=none;fillColor=none;align=left;verticalAlign=top;spacingLeft=4;spacingRight=4;overflow=hidden;rotatable=0;points=[[0,0.5],[1,0.5]];portConstraint=eastwest;" parent="E_Nj4bWa9FeO8sWHGyJy-10" vertex="1">
          <mxGeometry y="130" width="160" height="26" as="geometry" />
        </mxCell>
      </root>
    </mxGraphModel>
  </diagram>
  <diagram id="Z5l7r5WUxrOiQ6eRp_Dl" name="Use Case Diagram">
    <mxGraphModel dx="1418" dy="828" grid="1" gridSize="10" guides="1" tooltips="1" connect="1" arrows="1" fold="1" page="1" pageScale="1" pageWidth="850" pageHeight="1100" math="0" shadow="0">
      <root>
        <mxCell id="0" />
        <mxCell id="1" parent="0" />
        <mxCell id="jyxU9RnLtly8iBkYf4Ej-1" value="Linker Use Case Diagram" style="swimlane;" parent="1" vertex="1">
          <mxGeometry x="170" y="120" width="510" height="780" as="geometry" />
        </mxCell>
        <mxCell id="ERe2Kei0Urnq7Y6RzIDO-1" value="Add Links" style="ellipse;whiteSpace=wrap;html=1;fillColor=#d5e8d4;strokeColor=#82b366;" parent="jyxU9RnLtly8iBkYf4Ej-1" vertex="1">
          <mxGeometry x="50" y="70" width="140" height="70" as="geometry" />
        </mxCell>
        <mxCell id="ERe2Kei0Urnq7Y6RzIDO-2" value="Retrieve all Links" style="ellipse;whiteSpace=wrap;html=1;fillColor=#d5e8d4;strokeColor=#82b366;" parent="jyxU9RnLtly8iBkYf4Ej-1" vertex="1">
          <mxGeometry x="310" y="170" width="140" height="70" as="geometry" />
        </mxCell>
        <mxCell id="ERe2Kei0Urnq7Y6RzIDO-3" value="Update Links" style="ellipse;whiteSpace=wrap;html=1;fillColor=#d5e8d4;strokeColor=#82b366;" parent="jyxU9RnLtly8iBkYf4Ej-1" vertex="1">
          <mxGeometry x="250" y="70" width="140" height="70" as="geometry" />
        </mxCell>
        <mxCell id="ERe2Kei0Urnq7Y6RzIDO-4" value="Delete Links" style="ellipse;whiteSpace=wrap;html=1;fillColor=#d5e8d4;strokeColor=#82b366;" parent="jyxU9RnLtly8iBkYf4Ej-1" vertex="1">
          <mxGeometry x="115" y="285" width="140" height="70" as="geometry" />
        </mxCell>
        <mxCell id="ERe2Kei0Urnq7Y6RzIDO-5" value="Search/filter Links" style="ellipse;whiteSpace=wrap;html=1;fillColor=#fff2cc;strokeColor=#d6b656;" parent="jyxU9RnLtly8iBkYf4Ej-1" vertex="1">
          <mxGeometry x="255" y="390" width="140" height="70" as="geometry" />
        </mxCell>
        <mxCell id="ERe2Kei0Urnq7Y6RzIDO-6" value="Gets random suggestion" style="ellipse;whiteSpace=wrap;html=1;fillColor=#fff2cc;strokeColor=#d6b656;" parent="jyxU9RnLtly8iBkYf4Ej-1" vertex="1">
          <mxGeometry x="300" y="510" width="140" height="70" as="geometry" />
        </mxCell>
        <mxCell id="ERe2Kei0Urnq7Y6RzIDO-7" value="Visit Links" style="ellipse;whiteSpace=wrap;html=1;fillColor=#fff2cc;strokeColor=#d6b656;" parent="jyxU9RnLtly8iBkYf4Ej-1" vertex="1">
          <mxGeometry x="70" y="560" width="140" height="70" as="geometry" />
        </mxCell>
        <mxCell id="s7MhvtoxlKMeVYOrcZxR-1" value="Save batch open list" style="ellipse;whiteSpace=wrap;html=1;fillColor=#fff2cc;strokeColor=#d6b656;" parent="jyxU9RnLtly8iBkYf4Ej-1" vertex="1">
          <mxGeometry x="290" y="280" width="140" height="70" as="geometry" />
        </mxCell>
        <mxCell id="E2mRsTiPu3sa63rnz8H4-1" value="Edit Tags Name" style="ellipse;whiteSpace=wrap;html=1;fillColor=#d5e8d4;strokeColor=#82b366;" parent="jyxU9RnLtly8iBkYf4Ej-1" vertex="1">
          <mxGeometry x="290" y="600" width="120" height="80" as="geometry" />
        </mxCell>
        <mxCell id="E2mRsTiPu3sa63rnz8H4-2" value="Delete Tags" style="ellipse;whiteSpace=wrap;html=1;fillColor=#d5e8d4;strokeColor=#82b366;" parent="jyxU9RnLtly8iBkYf4Ej-1" vertex="1">
          <mxGeometry x="90" y="670" width="120" height="80" as="geometry" />
        </mxCell>
        <mxCell id="H2Uw6nZNHywQqqVTODkA-2" value="Login/Logout" style="ellipse;whiteSpace=wrap;html=1;fillColor=#ffe6cc;strokeColor=#d79b00;" vertex="1" parent="jyxU9RnLtly8iBkYf4Ej-1">
          <mxGeometry x="20" y="150" width="140" height="70" as="geometry" />
        </mxCell>
        <mxCell id="ERe2Kei0Urnq7Y6RzIDO-11" style="rounded=0;orthogonalLoop=1;jettySize=auto;html=1;entryX=0;entryY=0.5;entryDx=0;entryDy=0;" parent="1" source="jyxU9RnLtly8iBkYf4Ej-2" target="ERe2Kei0Urnq7Y6RzIDO-1" edge="1">
          <mxGeometry relative="1" as="geometry" />
        </mxCell>
        <mxCell id="ERe2Kei0Urnq7Y6RzIDO-12" style="edgeStyle=none;rounded=0;orthogonalLoop=1;jettySize=auto;html=1;" parent="1" source="jyxU9RnLtly8iBkYf4Ej-2" target="ERe2Kei0Urnq7Y6RzIDO-3" edge="1">
          <mxGeometry relative="1" as="geometry" />
        </mxCell>
        <mxCell id="ERe2Kei0Urnq7Y6RzIDO-13" style="edgeStyle=none;rounded=0;orthogonalLoop=1;jettySize=auto;html=1;entryX=0;entryY=0.5;entryDx=0;entryDy=0;" parent="1" source="jyxU9RnLtly8iBkYf4Ej-2" target="ERe2Kei0Urnq7Y6RzIDO-2" edge="1">
          <mxGeometry relative="1" as="geometry" />
        </mxCell>
        <mxCell id="ERe2Kei0Urnq7Y6RzIDO-14" style="edgeStyle=none;rounded=0;orthogonalLoop=1;jettySize=auto;html=1;" parent="1" source="jyxU9RnLtly8iBkYf4Ej-2" target="ERe2Kei0Urnq7Y6RzIDO-4" edge="1">
          <mxGeometry relative="1" as="geometry" />
        </mxCell>
        <mxCell id="ERe2Kei0Urnq7Y6RzIDO-15" style="edgeStyle=none;rounded=0;orthogonalLoop=1;jettySize=auto;html=1;" parent="1" source="jyxU9RnLtly8iBkYf4Ej-2" target="ERe2Kei0Urnq7Y6RzIDO-5" edge="1">
          <mxGeometry relative="1" as="geometry" />
        </mxCell>
        <mxCell id="ERe2Kei0Urnq7Y6RzIDO-16" style="edgeStyle=none;rounded=0;orthogonalLoop=1;jettySize=auto;html=1;" parent="1" source="jyxU9RnLtly8iBkYf4Ej-2" target="ERe2Kei0Urnq7Y6RzIDO-6" edge="1">
          <mxGeometry relative="1" as="geometry" />
        </mxCell>
        <mxCell id="ERe2Kei0Urnq7Y6RzIDO-17" style="edgeStyle=none;rounded=0;orthogonalLoop=1;jettySize=auto;html=1;" parent="1" source="jyxU9RnLtly8iBkYf4Ej-2" target="ERe2Kei0Urnq7Y6RzIDO-7" edge="1">
          <mxGeometry relative="1" as="geometry" />
        </mxCell>
        <mxCell id="s7MhvtoxlKMeVYOrcZxR-2" style="edgeStyle=orthogonalEdgeStyle;rounded=0;orthogonalLoop=1;jettySize=auto;html=1;entryX=0.5;entryY=1;entryDx=0;entryDy=0;" parent="1" source="jyxU9RnLtly8iBkYf4Ej-2" target="s7MhvtoxlKMeVYOrcZxR-1" edge="1">
          <mxGeometry relative="1" as="geometry" />
        </mxCell>
        <mxCell id="E2mRsTiPu3sa63rnz8H4-3" style="rounded=0;orthogonalLoop=1;jettySize=auto;html=1;" parent="1" source="jyxU9RnLtly8iBkYf4Ej-2" target="E2mRsTiPu3sa63rnz8H4-1" edge="1">
          <mxGeometry relative="1" as="geometry" />
        </mxCell>
        <mxCell id="E2mRsTiPu3sa63rnz8H4-4" style="edgeStyle=none;rounded=0;orthogonalLoop=1;jettySize=auto;html=1;entryX=0;entryY=0.5;entryDx=0;entryDy=0;" parent="1" source="jyxU9RnLtly8iBkYf4Ej-2" target="E2mRsTiPu3sa63rnz8H4-2" edge="1">
          <mxGeometry relative="1" as="geometry" />
        </mxCell>
        <mxCell id="H2Uw6nZNHywQqqVTODkA-3" style="rounded=0;orthogonalLoop=1;jettySize=auto;html=1;" edge="1" parent="1" source="jyxU9RnLtly8iBkYf4Ej-2" target="H2Uw6nZNHywQqqVTODkA-2">
          <mxGeometry relative="1" as="geometry" />
        </mxCell>
        <mxCell id="jyxU9RnLtly8iBkYf4Ej-2" value="User" style="shape=umlActor;verticalLabelPosition=bottom;verticalAlign=top;html=1;outlineConnect=0;" parent="1" vertex="1">
          <mxGeometry x="60" y="460" width="30" height="60" as="geometry" />
        </mxCell>
        <mxCell id="H2Uw6nZNHywQqqVTODkA-1" value="&lt;h1 style=&quot;font-size: 18px;&quot;&gt;Legend&lt;/h1&gt;&lt;p&gt;&lt;/p&gt;&lt;ul&gt;&lt;li&gt;&lt;font style=&quot;font-size: 16px; background-color: rgb(185, 224, 165);&quot;&gt;Completed&lt;/font&gt;&lt;/li&gt;&lt;li&gt;&lt;font style=&quot;font-size: 16px; background-color: rgb(255, 206, 159);&quot;&gt;Partially-completed&lt;/font&gt;&lt;/li&gt;&lt;li&gt;&lt;font style=&quot;font-size: 16px; background-color: rgb(255, 244, 195);&quot;&gt;Pending&lt;/font&gt;&lt;/li&gt;&lt;/ul&gt;&lt;p&gt;&lt;/p&gt;" style="text;html=1;strokeColor=none;fillColor=none;spacing=5;spacingTop=-20;whiteSpace=wrap;overflow=hidden;rounded=0;" vertex="1" parent="1">
          <mxGeometry x="760" y="130" width="190" height="120" as="geometry" />
        </mxCell>
        <mxCell id="oOrpiyOfm3dWnrdMiUjO-2" style="rounded=0;orthogonalLoop=1;jettySize=auto;html=1;entryX=1;entryY=0.5;entryDx=0;entryDy=0;" edge="1" parent="1" source="oOrpiyOfm3dWnrdMiUjO-1" target="ERe2Kei0Urnq7Y6RzIDO-2">
          <mxGeometry relative="1" as="geometry" />
        </mxCell>
        <mxCell id="oOrpiyOfm3dWnrdMiUjO-1" value="Guest" style="shape=umlActor;verticalLabelPosition=bottom;verticalAlign=top;html=1;" vertex="1" parent="1">
          <mxGeometry x="780" y="310" width="30" height="60" as="geometry" />
        </mxCell>
        <mxCell id="oOrpiyOfm3dWnrdMiUjO-6" style="rounded=0;orthogonalLoop=1;jettySize=auto;html=1;entryX=1;entryY=0.5;entryDx=0;entryDy=0;" edge="1" parent="1" source="oOrpiyOfm3dWnrdMiUjO-3" target="ERe2Kei0Urnq7Y6RzIDO-6">
          <mxGeometry relative="1" as="geometry" />
        </mxCell>
        <mxCell id="oOrpiyOfm3dWnrdMiUjO-3" value="System" style="shape=umlActor;verticalLabelPosition=bottom;verticalAlign=top;html=1;" vertex="1" parent="1">
          <mxGeometry x="780" y="720" width="30" height="60" as="geometry" />
        </mxCell>
        <mxCell id="oOrpiyOfm3dWnrdMiUjO-4" value="Admin" style="shape=umlActor;verticalLabelPosition=bottom;verticalAlign=top;html=1;" vertex="1" parent="1">
          <mxGeometry x="780" y="500" width="30" height="60" as="geometry" />
        </mxCell>
      </root>
    </mxGraphModel>
  </diagram>
  <diagram id="I7d89N2QVBdrLTU-CYOq" name="Extended Use Case">
    <mxGraphModel dx="1418" dy="828" grid="1" gridSize="10" guides="1" tooltips="1" connect="1" arrows="1" fold="1" page="1" pageScale="1" pageWidth="850" pageHeight="1100" math="0" shadow="0">
      <root>
        <mxCell id="0" />
        <mxCell id="1" parent="0" />
        <mxCell id="AEUNI52_dp07PJYTglBf-1" value="&lt;h1&gt;More Features&lt;/h1&gt;&lt;p&gt;&lt;/p&gt;&lt;ul style=&quot;font-size: 16px;&quot;&gt;&lt;li&gt;Categorization - by topics, tags&lt;/li&gt;&lt;li&gt;Search - to enable user quickly find url&lt;/li&gt;&lt;li&gt;Integration with other productivity app&lt;/li&gt;&lt;li&gt;Social sharing - share with friends&lt;/li&gt;&lt;li&gt;Collaborative feature&lt;/li&gt;&lt;li&gt;Recommendation - use machine learning to provide recommendation&lt;/li&gt;&lt;li&gt;Browser extension&lt;/li&gt;&lt;li&gt;Analytics - provide analytics on url, how frequent they use&lt;/li&gt;&lt;li&gt;Import and Export&lt;/li&gt;&lt;li&gt;Use threading for speed improvement&lt;/li&gt;&lt;/ul&gt;&lt;p&gt;&lt;/p&gt;" style="text;html=1;strokeColor=none;fillColor=none;spacing=5;spacingTop=-20;whiteSpace=wrap;overflow=hidden;rounded=0;" parent="1" vertex="1">
          <mxGeometry x="30" y="40" width="470" height="310" as="geometry" />
        </mxCell>
      </root>
    </mxGraphModel>
  </diagram>
  <diagram id="zRc5HhyvbGAuXlDaSXYW" name="Todos">
    <mxGraphModel dx="1418" dy="828" grid="1" gridSize="10" guides="1" tooltips="1" connect="1" arrows="1" fold="1" page="1" pageScale="1" pageWidth="850" pageHeight="1100" math="0" shadow="0">
      <root>
        <mxCell id="0" />
        <mxCell id="1" parent="0" />
        <mxCell id="ICjS8PicOsY4KM483ATQ-1" value="&lt;h1&gt;Todos&lt;/h1&gt;&lt;p&gt;&lt;/p&gt;&lt;ul style=&quot;font-size: 16px;&quot;&gt;&lt;li&gt;Categorize tags&lt;/li&gt;&lt;li&gt;Review console UI&lt;/li&gt;&lt;/ul&gt;&lt;p&gt;&lt;/p&gt;" style="text;html=1;strokeColor=none;fillColor=none;spacing=5;spacingTop=-20;whiteSpace=wrap;overflow=hidden;rounded=0;" vertex="1" parent="1">
          <mxGeometry x="90" y="60" width="190" height="120" as="geometry" />
        </mxCell>
      </root>
    </mxGraphModel>
  </diagram>
</mxfile>
